<svg height="846" width="720" xmlns="http://www.w3.org/2000/svg">
<rect height="846" fill="#555" width="720"></rect>
<text fill="#7f7" font-family="Courier New" font-size="12" xml:space="preserve">
<tspan x="10" y="26">2 megabytes installed</tspan>
<tspan x="10" y="42"></tspan>
<tspan x="10" y="58">node_modules</tspan>
<tspan x="10" y="74">└─┬ remark@7.0.0 </tspan>
<tspan x="10" y="90">  ├─┬ remark-parse@3.0.0 </tspan>
<tspan x="10" y="106">  │ ├── collapse-white-space@1.0.2 </tspan>
<tspan x="10" y="122">  │ ├─┬ has@1.0.1 </tspan>
<tspan x="10" y="138">  │ │ └── function-bind@1.1.0 </tspan>
<tspan x="10" y="154">  │ ├── is-alphabetical@1.0.0 </tspan>
<tspan x="10" y="170">  │ ├── is-decimal@1.0.0 </tspan>
<tspan x="10" y="186">  │ ├── is-whitespace-character@1.0.0 </tspan>
<tspan x="10" y="202">  │ ├── is-word-character@1.0.0 </tspan>
<tspan x="10" y="218">  │ ├── markdown-escapes@1.0.0 </tspan>
<tspan x="10" y="234">  │ ├─┬ parse-entities@1.1.0 </tspan>
<tspan x="10" y="250">  │ │ ├── character-entities@1.2.0 </tspan>
<tspan x="10" y="266">  │ │ ├── character-entities-legacy@1.1.0 </tspan>
<tspan x="10" y="282">  │ │ ├── character-reference-invalid@1.1.0 </tspan>
<tspan x="10" y="298">  │ │ ├── is-alphanumerical@1.0.0 </tspan>
<tspan x="10" y="314">  │ │ └── is-hexadecimal@1.0.0 </tspan>
<tspan x="10" y="330">  │ ├── repeat-string@1.6.1 </tspan>
<tspan x="10" y="346">  │ ├── state-toggle@1.0.0 </tspan>
<tspan x="10" y="362">  │ ├── trim@0.0.1 </tspan>
<tspan x="10" y="378">  │ ├── trim-trailing-lines@1.1.0 </tspan>
<tspan x="10" y="394">  │ ├─┬ unherit@1.1.0 </tspan>
<tspan x="10" y="410">  │ │ └── inherits@2.0.3 </tspan>
<tspan x="10" y="426">  │ ├─┬ unist-util-remove-position@1.1.0 </tspan>
<tspan x="10" y="442">  │ │ └── unist-util-visit@1.1.1 </tspan>
<tspan x="10" y="458">  │ ├── vfile-location@2.0.1 </tspan>
<tspan x="10" y="474">  │ └── xtend@4.0.1 </tspan>
<tspan x="10" y="490">  ├─┬ remark-stringify@3.0.0 </tspan>
<tspan x="10" y="506">  │ ├── ccount@1.0.1 </tspan>
<tspan x="10" y="522">  │ ├── is-alphanumeric@1.0.0 </tspan>
<tspan x="10" y="538">  │ ├── longest-streak@2.0.1 </tspan>
<tspan x="10" y="554">  │ ├── markdown-table@1.1.0 </tspan>
<tspan x="10" y="570">  │ ├─┬ mdast-util-compact@1.0.0 </tspan>
<tspan x="10" y="586">  │ │ └─┬ unist-util-modify-children@1.1.0 </tspan>
<tspan x="10" y="602">  │ │   └── array-iterate@1.1.0 </tspan>
<tspan x="10" y="618">  │ └─┬ stringify-entities@1.3.0 </tspan>
<tspan x="10" y="634">  │   └── character-entities-html4@1.1.0 </tspan>
<tspan x="10" y="650">  └─┬ unified@6.1.2 </tspan>
<tspan x="10" y="666">    ├── bail@1.0.1 </tspan>
<tspan x="10" y="682">    ├── extend@3.0.0 </tspan>
<tspan x="10" y="698">    ├── is-plain-obj@1.1.0 </tspan>
<tspan x="10" y="714">    ├── isarray@2.0.1 </tspan>
<tspan x="10" y="730">    ├── trough@1.0.0 </tspan>
<tspan x="10" y="746">    ├─┬ vfile@2.0.1 </tspan>
<tspan x="10" y="762">    │ ├── is-buffer@1.1.5 </tspan>
<tspan x="10" y="778">    │ ├── replace-ext@1.0.0 </tspan>
<tspan x="10" y="794">    │ └── unist-util-stringify-position@1.1.0 </tspan>
<tspan x="10" y="810">    ├── x-is-function@1.0.4 </tspan>
<tspan x="10" y="826">    └── x-is-string@0.1.0</tspan>
</text>
</svg>
